# xmcd
#
# Track frame offsets:
#	150
#	9767
#	20525
#	32607
#	48245
#	59577
#	68782
#	78002
#	89782
#	100742
#	110892
#	118770
#	130142
#	142455
#	152925
#	164157
#
# Disc length: 2374 seconds
#
# Revision: 9
# Processed by: cddbd v1.4PL0 Copyright (c) Steve Scherf et al.
# Submitted via: audiograbber 1.81.02
#
DISCID=e2094410
DTITLE=Misc Artist - American Country  and  Western Supertracks CD 2
DYEAR=1900
DGENRE=
TTITLE0=Lorne Greene - Bonanza
TTITLE1=Skeeter Davis and Bobby Bare - We´ll sing in the sunshine
TTITLE2=Eddy Arnold - Make the wolrd go away
TTITLE3=Jimmie Driftwood - The beattle of New Orleans
TTITLE4=Hank Snow - A Fool such as I
TTITLE5=Chet Atkins - Yakety Axe
TTITLE6=Waylon Jennings - Brown Eyed handsome Man
TTITLE7=Porter Wagoner and Dolly Parton - Teh last thing on my mind
TTITLE8=Jerry Reed - Guitar Man
TTITLE9=Don Gipson - Sweet Dreams
TTITLE10=Sheb Wooley - Rawhide
TTITLE11=Hank Locklin - Send me the Pillow you dream on
TTITLE12=Bobby Bare - 500 miles away from home
TTITLE13=George Hamilton IV - Break My Mind
TTITLE14=Wille Nelson - The Party´s over
TTITLE15=Dolly Parton - I will always love you
EXTD=
EXTT0=
EXTT1=
EXTT2=
EXTT3=
EXTT4=
EXTT5=
EXTT6=
EXTT7=
EXTT8=
EXTT9=
EXTT10=
EXTT11=
EXTT12=
EXTT13=
EXTT14=
EXTT15=
PLAYORDER=
